<?xml version="1.0" standalone="no"?>
<!DOCTYPE svg PUBLIC "-//W3C//DTD SVG 20010904//EN"
 "http://www.w3.org/TR/2001/REC-SVG-20010904/DTD/svg10.dtd">
<svg version="1.0" xmlns="http://www.w3.org/2000/svg"
 width="256.000000pt" height="161.000000pt" viewBox="0 0 256.000000 161.000000"
 preserveAspectRatio="xMidYMid meet">

<g transform="translate(0.000000,161.000000) scale(0.100000,-0.100000)"
fill="#000000" stroke="none">
<path d="M606 1545 c-14 -15 -16 -90 -16 -745 0 -655 2 -730 16 -745 13 -13
36 -15 128 -13 103 3 111 4 111 23 0 19 -8 20 -102 23 l-103 3 0 709 0 709
103 3 c94 3 102 4 102 23 0 19 -8 20 -111 23 -92 2 -115 0 -128 -13z"/>
<path d="M2014 1545 c-11 -29 7 -35 107 -35 l99 0 0 -710 0 -709 -102 -3 c-95
-3 -103 -4 -103 -23 0 -19 8 -20 111 -23 92 -2 115 0 128 13 14 15 16 90 16
750 0 716 0 735 -19 745 -11 5 -67 10 -126 10 -83 0 -107 -3 -111 -15z"/>
<path d="M804 1375 c-3 -8 4 -28 16 -45 l22 -31 -27 -34 c-40 -54 -14 -77 35
-30 l26 25 24 -25 c46 -49 75 -23 35 30 l-27 34 21 30 c37 52 17 80 -28 37
l-27 -26 -24 25 c-27 29 -38 31 -46 10z"/>
<path d="M1314 1376 c-3 -8 5 -28 17 -45 l22 -31 -26 -37 c-14 -20 -24 -40
-21 -45 11 -17 42 -7 59 18 l17 26 27 -26 c50 -47 77 -26 36 29 l-27 34 21 30
c37 52 17 80 -28 37 l-27 -26 -22 25 c-25 28 -40 32 -48 11z"/>
<path d="M1823 1374 c-3 -8 4 -25 16 -38 27 -28 26 -35 -4 -76 -13 -18 -22
-37 -19 -41 11 -18 42 -8 59 17 l17 26 27 -26 c28 -27 61 -35 61 -14 0 6 -11
26 -26 45 l-25 33 24 33 c40 53 12 80 -33 32 l-23 -25 -23 25 c-26 29 -42 32
-51 9z"/>
<path d="M1022 1254 c-25 -17 -29 -34 -7 -34 10 0 15 -11 15 -35 0 -25 -4 -35
-16 -35 -9 0 -14 -6 -11 -12 2 -8 21 -13 47 -13 26 0 45 5 48 13 2 6 -3 12
-12 12 -13 0 -16 12 -16 60 0 65 -8 72 -48 44z"/>
<path d="M1532 1254 c-27 -19 -28 -34 -2 -34 29 0 29 -60 0 -67 -33 -9 -17
-28 25 -31 44 -4 70 14 43 29 -14 8 -18 23 -18 64 0 60 -9 67 -48 39z"/>
<path d="M2039 1250 l-24 -20 23 -6 c30 -9 32 -63 2 -71 -11 -3 -20 -9 -20
-13 0 -19 73 -27 99 -11 11 7 9 11 -8 20 -17 10 -21 21 -21 66 0 61 -11 69
-51 35z"/>
<path d="M70 835 l0 -125 70 0 c86 0 126 18 146 65 30 72 8 146 -51 171 -19 8
-64 14 -100 14 l-65 0 0 -125z m151 59 c26 -24 26 -94 0 -118 -11 -10 -38 -20
-60 -23 l-41 -6 0 88 0 88 41 -6 c22 -3 49 -13 60 -23z"/>
<path d="M800 892 c0 -11 9 -27 20 -37 26 -23 25 -29 -6 -70 -41 -54 -12 -76
38 -28 l28 26 20 -26 c12 -15 28 -27 35 -27 26 0 27 21 1 55 -31 41 -32 47 -6
70 11 10 20 26 20 37 0 27 -37 22 -57 -8 l-17 -26 -19 26 c-22 30 -57 35 -57
8z"/>
<path d="M1310 892 c0 -11 9 -27 20 -37 26 -23 25 -29 -6 -70 -41 -54 -12 -76
38 -28 l28 26 20 -26 c12 -15 28 -27 35 -27 27 0 26 21 0 56 l-27 36 21 29
c11 15 21 35 21 44 0 25 -36 17 -55 -12 l-18 -26 -19 26 c-23 31 -58 36 -58 9z"/>
<path d="M1820 896 c0 -7 9 -25 20 -39 25 -32 25 -36 -4 -72 -41 -52 -13 -75
36 -28 l28 26 20 -26 c24 -30 48 -35 57 -11 3 9 -6 27 -23 45 l-28 29 22 30
c12 16 22 36 22 45 0 24 -36 17 -54 -11 l-17 -25 -20 25 c-22 28 -59 35 -59
12z"/>
<path d="M347 863 c-4 -3 -7 -12 -7 -20 0 -10 21 -13 84 -13 83 0 115 12 85
31 -16 10 -153 12 -162 2z"/>
<path d="M340 775 c0 -13 13 -15 85 -13 111 4 111 22 0 26 -72 2 -85 0 -85
-13z"/>
<path d="M1007 709 c-24 -14 -13 -27 17 -22 37 7 39 -13 5 -51 -41 -47 -34
-68 23 -64 46 3 67 28 23 28 l-26 0 20 29 c24 33 27 61 9 79 -15 15 -47 15
-71 1z"/>
<path d="M1517 709 c-24 -14 -13 -27 17 -22 37 7 39 -13 5 -51 -41 -47 -34
-68 23 -64 46 3 67 28 23 28 l-26 0 20 26 c47 60 2 120 -62 83z"/>
<path d="M2033 713 c-24 -9 -14 -30 11 -26 38 8 40 -15 6 -53 -17 -20 -29 -41
-27 -47 5 -16 89 -15 95 1 2 7 -6 12 -23 12 l-26 0 20 26 c46 59 10 114 -56
87z"/>
<path d="M800 395 c0 -9 10 -29 21 -44 l21 -29 -27 -36 c-41 -54 -14 -78 35
-31 l26 25 24 -25 c46 -49 75 -23 34 30 l-27 36 21 29 c41 55 15 84 -31 35
l-23 -25 -22 25 c-24 28 -52 33 -52 10z"/>
<path d="M1313 394 c-3 -8 4 -25 16 -38 26 -28 26 -29 -4 -73 -13 -20 -22 -40
-19 -45 10 -16 36 -8 56 18 l21 25 26 -25 c50 -48 77 -24 36 30 l-26 34 20 29
c41 57 19 82 -30 35 l-27 -26 -17 26 c-19 29 -43 34 -52 10z"/>
<path d="M1823 394 c-3 -8 4 -25 17 -39 23 -25 21 -53 -5 -75 -21 -17 -19 -50
2 -50 10 0 27 12 39 27 l21 27 25 -29 c17 -19 30 -26 41 -22 23 9 21 20 -9 56
l-26 31 27 35 c41 54 14 77 -35 30 l-27 -26 -17 26 c-19 28 -44 33 -53 9z"/>
<path d="M997 264 c-12 -12 4 -24 34 -24 33 0 39 -15 9 -25 -11 -3 -20 -10
-20 -15 0 -4 9 -10 20 -13 33 -9 22 -27 -16 -27 -50 0 -39 -24 14 -28 33 -3
43 1 52 18 6 11 7 26 3 33 -4 6 -8 28 -8 47 0 34 -1 35 -40 38 -23 2 -44 0
-48 -4z"/>
<path d="M1510 256 c0 -11 10 -16 30 -16 34 0 40 -15 10 -25 -11 -3 -20 -10
-20 -15 0 -4 9 -10 20 -13 33 -9 22 -27 -16 -27 -50 0 -39 -24 13 -28 45 -3
70 16 57 45 -4 10 -8 34 -8 53 -1 34 -2 35 -43 38 -34 2 -43 0 -43 -12z"/>
<path d="M2027 264 c-15 -15 -6 -24 23 -24 34 0 40 -15 10 -25 -11 -3 -20 -10
-20 -15 0 -4 9 -10 20 -13 33 -9 22 -27 -16 -27 -24 0 -34 -4 -31 -12 2 -8 21
-13 47 -13 47 0 69 19 55 51 -4 11 -8 33 -9 49 -1 27 -5 30 -36 33 -20 2 -39
0 -43 -4z"/>
</g>
</svg>
